<?xml version="1.0" encoding="iso-8859-1"?>
<!-- Generator: Adobe Illustrator 19.0.0, SVG Export Plug-In . SVG Version: 6.00 Build 0)  -->
<svg version="1.1" id="Capa_1" xmlns="http://www.w3.org/2000/svg" xmlns:xlink="http://www.w3.org/1999/xlink" x="0px" y="0px"
	 viewBox="0 0 511.999 511.999" style="enable-background:new 0 0 511.999 511.999;" xml:space="preserve">
<g>
	<g>
		<path d="M423.395,0H388.83H123.168H88.603c-4.142,0-7.5,3.358-7.5,7.5s3.358,7.5,7.5,7.5h27.065v19.831c0,4.142,3.358,7.5,7.5,7.5
			h36.346c4.142,0,7.5-3.358,7.5-7.5c0-4.142-3.358-7.5-7.5-7.5h-28.846V15h250.661v12.331h-186.33c-4.142,0-7.5,3.358-7.5,7.5
			c0,4.142,3.358,7.5,7.5,7.5h35.866V83.44c0,4.142,3.358,7.5,7.5,7.5h10.134v60.683c-88.243,3.937-158.823,76.949-158.823,166.146
			c0,91.711,74.612,166.323,166.323,166.323s166.323-74.612,166.323-166.323c0-13.286-1.573-26.513-4.675-39.311
			c-0.976-4.025-5.031-6.498-9.056-5.522c-4.026,0.976-6.498,5.03-5.522,9.056c2.238,9.233,3.586,18.716,4.054,28.278H353.9
			c-0.515-25.702-3.668-50.621-9.094-73.371h39.081c3.179,5.003,6.095,10.209,8.688,15.626c1.789,3.736,6.266,5.317,10.003,3.527
			c3.736-1.789,5.315-6.267,3.527-10.003c-13.355-27.903-34.197-51.514-60.272-68.278c-24.685-15.871-53.008-24.827-82.333-26.136
			V90.939h10.133c4.142,0,7.5-3.358,7.5-7.5V42.331h107.697c4.142,0,7.5-3.358,7.5-7.5V15h27.065c4.142,0,7.5-3.358,7.5-7.5
			S427.538,0,423.395,0z M186.19,183.542c-5.837,11.514-10.868,24.42-14.996,38.356h-32.185
			C151.94,206.147,167.984,193.049,186.19,183.542z M128.155,236.897h39.039c-5.426,22.75-8.579,47.669-9.095,73.371h-53.236
			C106.182,283.384,114.552,258.325,128.155,236.897z M139.009,413.64h32.163c4.16,13.971,9.221,26.894,15.032,38.363
			C167.993,442.495,151.944,429.394,139.009,413.64z M248.499,468.905c-13.644-0.67-26.815-3.162-39.283-7.225
			c-8.867-12.959-16.475-29.371-22.382-48.04h61.665V468.905z M248.499,398.64H182.58c-1.898-7.514-3.535-15.307-4.883-23.319
			c-0.688-4.084-4.557-6.839-8.64-6.152c-4.085,0.687-6.839,4.556-6.152,8.64c1.196,7.112,2.624,14.062,4.245,20.831h-38.996
			c-13.603-21.428-21.973-46.487-23.292-73.371h53.234c0.107,5.437,0.321,10.868,0.658,16.219c0.25,3.974,3.551,7.029,7.478,7.029
			c0.159,0,0.318-0.005,0.479-0.015c4.134-0.26,7.274-3.822,7.014-7.957c-0.317-5.04-0.52-10.155-0.625-15.277h75.399V398.64z
			 M248.499,310.269h-75.398c0.535-25.905,3.829-50.884,9.479-73.371h65.919V310.269z M248.499,221.897h-61.69
			c5.845-18.539,13.413-34.895,22.427-48.047c12.463-4.059,25.627-6.549,39.263-7.218V221.897z M302.762,461.687
			c-12.462,4.059-25.626,6.549-39.263,7.218V413.64h61.69C319.345,432.178,311.777,448.534,302.762,461.687z M338.897,325.269
			c-0.535,25.905-3.829,50.884-9.479,73.371h-65.919v-73.371H338.897z M263.499,310.269v-73.371h65.919
			c5.65,22.486,8.944,47.465,9.479,73.371H263.499z M325.814,451.993c5.837-11.513,10.868-24.419,14.996-38.353h32.18
			C360.059,429.389,344.017,442.486,325.814,451.993z M353.9,325.269h53.236c-1.319,26.884-9.689,51.943-23.292,73.371h-39.039
			C350.231,375.891,353.384,350.971,353.9,325.269z M373.007,221.897h-32.201c-4.106-13.86-9.104-26.702-14.901-38.168
			C343.9,193.138,359.981,206.096,373.007,221.897z M302.85,173.977c8.976,13.13,16.513,29.442,22.339,47.92h-61.69v-55.24
			C277.019,167.339,290.241,169.835,302.85,173.977z M266.132,75.939h-20.267V42.331h20.267V75.939z"/>
	</g>
</g>
<g>
	<g>
		<path d="M479.4,237.171h-23.594c-4.142,0-7.5,3.358-7.5,7.5c0,4.142,3.358,7.5,7.5,7.5H479.4c4.142,0,7.5-3.358,7.5-7.5
			C486.9,240.529,483.541,237.171,479.4,237.171z"/>
	</g>
</g>
<g>
	<g>
		<path d="M479.4,383.366h-23.594c-4.142,0-7.5,3.358-7.5,7.5c0,4.142,3.358,7.5,7.5,7.5H479.4c4.142,0,7.5-3.358,7.5-7.5
			C486.9,386.724,483.541,383.366,479.4,383.366z"/>
	</g>
</g>
<g>
	<g>
		<path d="M397.376,125.734c-2.928-2.929-7.677-2.929-10.606,0l-21.943,21.943c-2.929,2.929-2.929,7.678,0,10.606
			c1.464,1.464,3.384,2.197,5.303,2.197s3.839-0.732,5.303-2.197l21.943-21.943C400.306,133.411,400.306,128.662,397.376,125.734z"
			/>
	</g>
</g>
<g>
	<g>
		<path d="M397.378,499.196l-21.943-21.943c-2.929-2.929-7.678-2.929-10.606,0c-2.929,2.929-2.929,7.678,0,10.606l21.943,21.943
			c1.464,1.464,3.384,2.197,5.303,2.197s3.839-0.732,5.303-2.197C400.306,506.873,400.306,502.124,397.378,499.196z"/>
	</g>
</g>
<g>
	<g>
		<path d="M56.194,237.171H32.599c-4.142,0-7.5,3.358-7.5,7.5c0,4.142,3.358,7.5,7.5,7.5h23.594c4.142,0,7.5-3.358,7.5-7.5
			C63.694,240.529,60.335,237.171,56.194,237.171z"/>
	</g>
</g>
<g>
	<g>
		<path d="M56.194,383.366H32.599c-4.142,0-7.5,3.358-7.5,7.5c0,4.142,3.358,7.5,7.5,7.5h23.594c4.142,0,7.5-3.358,7.5-7.5
			C63.694,386.724,60.335,383.366,56.194,383.366z"/>
	</g>
</g>
<g>
	<g>
		<path d="M147.171,147.677l-21.943-21.943c-2.929-2.929-7.678-2.929-10.606,0c-2.929,2.929-2.929,7.678,0,10.606l21.943,21.943
			c1.464,1.465,3.383,2.197,5.303,2.197c1.919,0,3.839-0.732,5.303-2.197C150.1,155.354,150.1,150.605,147.171,147.677z"/>
	</g>
</g>
<g>
	<g>
		<path d="M147.171,477.253c-2.928-2.928-7.677-2.928-10.606,0l-21.943,21.943c-2.929,2.929-2.929,7.678,0,10.606
			c1.464,1.464,3.384,2.197,5.303,2.197s3.839-0.732,5.303-2.197l21.943-21.943C150.1,484.93,150.1,480.181,147.171,477.253z"/>
	</g>
</g>
<g>
</g>
<g>
</g>
<g>
</g>
<g>
</g>
<g>
</g>
<g>
</g>
<g>
</g>
<g>
</g>
<g>
</g>
<g>
</g>
<g>
</g>
<g>
</g>
<g>
</g>
<g>
</g>
<g>
</g>
</svg>
