<?xml version="1.0" encoding="iso-8859-1"?>
<!-- Generator: Adobe Illustrator 18.1.1, SVG Export Plug-In . SVG Version: 6.00 Build 0)  -->
<svg version="1.1" id="Capa_1" xmlns="http://www.w3.org/2000/svg" xmlns:xlink="http://www.w3.org/1999/xlink" x="0px" y="0px"
	 viewBox="0 0 286.2 286.2" style="enable-background:new 0 0 286.2 286.2;" xml:space="preserve">
<g id="Saxophone__x2F__Sax">
	<path style="fill-rule:evenodd;clip-rule:evenodd;" d="M234.999,28.054c-1.634-0.227-1.293-0.306-4.972-0.306
		C213.937,27.748,215.02,0,176.891,0c-21.84,0-39.844,15.495-43.374,35.797l-0.735,7.166c0,0-0.015,0.584-0.039,1.608H121.91
		c-4.947,0-8.949,4.007-8.949,8.949v8.949c0,4.942,4.002,8.949,8.949,8.949h10.248c-0.056,2.827-0.114,5.816-0.173,8.949H121.91
		c-4.947,0-8.949,4.007-8.949,8.949v8.949c0,4.941,4.002,8.949,8.949,8.949h9.615c-0.045,2.937-0.09,5.918-0.133,8.949h-9.482
		c-4.947,0-8.949,4.008-8.949,8.949v8.949c0,4.941,4.002,8.949,8.949,8.949h9.161c-0.129,13.331-0.212,26.845-0.212,39.747
		c0,21.849,2.054,58.694-8.949,58.694c-2.141,0-8.949-0.371-8.949-17.898v-52.368l4.203-1.266c3.863-1.215,5.995-5.235,4.746-9.01
		c-1.233-3.767-5.366-5.838-9.246-4.623L52.178,174.51c-3.862,1.206-6.004,5.235-4.754,9.002c1.232,3.767,5.366,5.838,9.247,4.632
		l2.595-0.782v34.576c0,2.116,0.035,4.221,0.087,6.31c0.026,1.084,0.106,2.149,0.157,3.216
		c1.119,26.332,14.298,54.735,60.434,54.735c29.932,0,46.712-22.434,46.712-57.951c0,0,0-141.823,0-174.728
		c0-28.246,14.822-30.029,24.891-30.029c12.584,0,23.072,18.301,37.754,18.301v0.078l4.973,0.044c3.698,0,4.859-0.979,4.859-4.448
		v-4.449C239.133,29.749,237.83,28.054,234.999,28.054z"/>
</g>
<g>
</g>
<g>
</g>
<g>
</g>
<g>
</g>
<g>
</g>
<g>
</g>
<g>
</g>
<g>
</g>
<g>
</g>
<g>
</g>
<g>
</g>
<g>
</g>
<g>
</g>
<g>
</g>
<g>
</g>
</svg>
