<?xml version="1.0" encoding="iso-8859-1"?>
<!-- Generator: Adobe Illustrator 19.0.0, SVG Export Plug-In . SVG Version: 6.00 Build 0)  -->
<svg version="1.1" id="Layer_1" xmlns="http://www.w3.org/2000/svg" xmlns:xlink="http://www.w3.org/1999/xlink" x="0px" y="0px"
	 viewBox="0 0 511.999 511.999" style="enable-background:new 0 0 511.999 511.999;" xml:space="preserve">
<g>
	<g>
		<path d="M419.515,462.374l-109.66-217.8c-2.317-4.602-7.03-7.506-12.183-7.506h-1.135V117.453h11.974
			c7.533,0,13.64-6.107,13.64-13.64c0-7.533-6.107-13.64-13.64-13.64h-5.392l-3.701-21.369h9.091c7.533,0,13.64-6.107,13.64-13.64
			s-6.107-13.64-13.64-13.64h-13.814l-5.231-30.212C288.335,4.774,282.662,0,276.027,0h-40.055c-6.636,0-12.307,4.774-13.441,11.313
			l-5.231,30.212h-13.814c-7.533,0-13.64,6.107-13.64,13.64s6.107,13.64,13.64,13.64h9.091l-3.701,21.369h-5.392
			c-7.533,0-13.64,6.107-13.64,13.64c0,7.533,6.107,13.64,13.64,13.64h11.974v119.615h-1.135c-5.153,0-9.866,2.904-12.183,7.506
			l-109.658,217.8c-6.626,13.161-4.294,28.513,5.94,39.112c10.235,10.599,25.497,13.468,38.882,7.304l118.693-54.649l118.693,54.649
			c4.685,2.158,9.6,3.208,14.449,3.208c9.005,0,17.781-3.623,24.433-10.512C423.809,490.888,426.141,475.535,419.515,462.374z
			 M247.454,27.28h17.092l2.466,14.245h-22.025L247.454,27.28z M240.263,68.804h31.472l3.701,21.369h-38.872L240.263,68.804z
			 M269.258,117.453v133.255v78.174h-26.517v-78.174V117.453H269.258z M393.95,482.538c-1.023,1.058-3.834,3.324-7.85,1.474
			l-124.397-57.276c-1.81-0.833-3.756-1.251-5.704-1.251s-3.894,0.417-5.704,1.251l-124.397,57.276
			c-4.011,1.845-6.828-0.416-7.85-1.474c-1.023-1.058-3.186-3.949-1.199-7.896l34.479-68.481h110.107
			c7.533,0,13.64-6.107,13.64-13.64s-6.107-13.64-13.64-13.64h-96.372l50.398-100.098v63.736c0,7.533,6.107,13.64,13.64,13.64
			h53.797c7.533,0,13.64-6.107,13.64-13.64v-63.736l98.611,195.858C397.136,478.589,394.973,481.48,393.95,482.538z"/>
	</g>
</g>
<g>
	<g>
		<path d="M315.727,389.863c-0.177-0.873-0.437-1.732-0.777-2.551c-0.341-0.832-0.764-1.623-1.255-2.36
			c-0.491-0.75-1.064-1.446-1.691-2.073c-0.627-0.627-1.337-1.2-2.073-1.691c-0.737-0.491-1.541-0.914-2.36-1.255
			s-1.678-0.614-2.551-0.777c-1.76-0.355-3.574-0.355-5.333,0c-0.873,0.164-1.732,0.436-2.551,0.777
			c-0.818,0.341-1.609,0.764-2.36,1.255c-0.737,0.491-1.432,1.064-2.073,1.691c-2.537,2.537-3.996,6.056-3.996,9.643
			c0,0.887,0.095,1.787,0.273,2.66c0.177,0.873,0.437,1.732,0.778,2.551c0.341,0.832,0.764,1.623,1.255,2.36
			c0.505,0.75,1.064,1.446,1.691,2.073c0.641,0.627,1.337,1.2,2.073,1.691c0.75,0.491,1.541,0.914,2.36,1.255
			c0.818,0.341,1.678,0.614,2.551,0.777c0.887,0.177,1.773,0.273,2.66,0.273c0.9,0,1.787-0.095,2.673-0.273
			c0.873-0.164,1.732-0.437,2.551-0.777c0.818-0.341,1.623-0.764,2.36-1.255c0.737-0.491,1.446-1.064,2.073-1.691
			c0.627-0.627,1.2-1.323,1.691-2.073c0.491-0.737,0.914-1.528,1.255-2.36c0.341-0.818,0.6-1.678,0.777-2.551
			c0.177-0.873,0.259-1.773,0.259-2.66C315.987,391.636,315.905,390.736,315.727,389.863z"/>
	</g>
</g>
<g>
</g>
<g>
</g>
<g>
</g>
<g>
</g>
<g>
</g>
<g>
</g>
<g>
</g>
<g>
</g>
<g>
</g>
<g>
</g>
<g>
</g>
<g>
</g>
<g>
</g>
<g>
</g>
<g>
</g>
</svg>
