<?xml version="1.0" encoding="iso-8859-1"?>
<!-- Generator: Adobe Illustrator 19.0.0, SVG Export Plug-In . SVG Version: 6.00 Build 0)  -->
<svg version="1.1" id="Layer_1" xmlns="http://www.w3.org/2000/svg" xmlns:xlink="http://www.w3.org/1999/xlink" x="0px" y="0px"
	 viewBox="0 0 512 512" style="enable-background:new 0 0 512 512;" xml:space="preserve">
<g>
	<g>
		<path d="M503.312,97.303h-23.167V73.557c0-4.798-3.889-8.688-8.688-8.688h-35.33c-4.799,0-8.688,3.89-8.688,8.688v23.747h-17.955
			v-9.846c0-4.798-3.889-8.688-8.688-8.688s-8.688,3.89-8.688,8.688v9.846H119.891v-9.846c0-4.798-3.889-8.688-8.688-8.688
			s-8.688,3.89-8.688,8.688v9.846H84.561v-9.846c0-4.798-3.889-8.688-8.688-8.688s-8.688,3.89-8.688,8.688v9.846H49.231v-9.846
			c0-4.798-3.889-8.688-8.688-8.688s-8.688,3.89-8.688,8.688v9.846H8.688c-4.799,0-8.688,3.89-8.688,8.688v332.453
			c0,4.798,3.889,8.688,8.688,8.688h138.385c2.775,0,5.382-1.325,7.019-3.567l23.876-32.719h156.066l23.876,32.719
			c1.636,2.241,4.243,3.567,7.019,3.567h138.384c4.799,0,8.688-3.89,8.688-8.688V105.991C512,101.193,508.111,97.303,503.312,97.303
			z M444.815,82.244h17.955v15.059h-17.955V82.244z M184.76,393.471h-11.208c-2.775,0-5.382,1.325-7.019,3.567l-23.876,32.718
			H17.376V114.679H184.76V393.471z M309.864,393.471H202.136V114.679h107.729V393.471z M494.624,429.756H369.343l-23.876-32.718
			c-1.636-2.241-4.243-3.567-7.019-3.567H327.24V114.679h167.385V429.756z"/>
	</g>
</g>
<g>
	<g>
		<path d="M100.778,245.575c-39.281,0-71.24,31.958-71.24,71.24c0,39.281,31.958,71.24,71.24,71.24
			c39.282,0,71.24-31.958,71.24-71.24C172.018,277.533,140.06,245.575,100.778,245.575z M100.778,370.679
			c-29.702,0-53.864-24.164-53.864-53.864c0-29.701,24.162-53.864,53.864-53.864c29.702,0,53.864,24.164,53.864,53.864
			C154.643,346.515,130.48,370.679,100.778,370.679z"/>
	</g>
</g>
<g>
	<g>
		<path d="M100.778,286.118c-16.926,0-30.697,13.771-30.697,30.697c0,16.926,13.771,30.697,30.697,30.697
			c16.926,0,30.697-13.771,30.697-30.697C131.475,299.888,117.704,286.118,100.778,286.118z M100.778,330.136
			c-7.345,0-13.321-5.976-13.321-13.321c0-7.345,5.976-13.321,13.321-13.321c7.345,0,13.321,5.976,13.321,13.321
			C114.1,324.16,108.124,330.136,100.778,330.136z"/>
	</g>
</g>
<g>
	<g>
		<path d="M411.222,245.575c-39.282,0-71.24,31.958-71.24,71.24c0,39.281,31.958,71.24,71.24,71.24s71.24-31.958,71.24-71.24
			C482.462,277.533,450.503,245.575,411.222,245.575z M411.222,370.679c-29.702,0-53.864-24.164-53.864-53.864
			c0-29.701,24.162-53.864,53.864-53.864s53.864,24.164,53.864,53.864C465.086,346.515,440.924,370.679,411.222,370.679z"/>
	</g>
</g>
<g>
	<g>
		<path d="M411.222,286.118c-16.926,0-30.697,13.771-30.697,30.697c0,16.926,13.771,30.697,30.697,30.697
			c16.926,0,30.697-13.771,30.697-30.697C441.919,299.888,428.148,286.118,411.222,286.118z M411.222,330.136
			c-7.345,0-13.321-5.976-13.321-13.321c0-7.345,5.976-13.321,13.321-13.321s13.321,5.976,13.321,13.321
			C424.543,324.16,418.567,330.136,411.222,330.136z"/>
	</g>
</g>
<g>
	<g>
		<path d="M58.498,123.946H37.647c-4.799,0-8.688,3.89-8.688,8.688c0,4.798,3.889,8.688,8.688,8.688h20.851
			c4.799,0,8.688-3.89,8.688-8.688C67.186,127.836,63.297,123.946,58.498,123.946z"/>
	</g>
</g>
<g>
	<g>
		<path d="M58.498,150.974H37.647c-4.799,0-8.688,3.89-8.688,8.688s3.889,8.688,8.688,8.688h20.851c4.799,0,8.688-3.89,8.688-8.688
			S63.297,150.974,58.498,150.974z"/>
	</g>
</g>
<g>
	<g>
		<path d="M58.498,178.003H37.647c-4.799,0-8.688,3.89-8.688,8.688s3.889,8.688,8.688,8.688h20.851c4.799,0,8.688-3.89,8.688-8.688
			S63.297,178.003,58.498,178.003z"/>
	</g>
</g>
<g>
	<g>
		<path d="M58.498,205.032H37.647c-4.799,0-8.688,3.89-8.688,8.688s3.889,8.688,8.688,8.688h20.851c4.799,0,8.688-3.89,8.688-8.688
			S63.297,205.032,58.498,205.032z"/>
	</g>
</g>
<g>
	<g>
		<path d="M474.353,123.946h-20.851c-4.799,0-8.688,3.89-8.688,8.688c0,4.798,3.889,8.688,8.688,8.688h20.851
			c4.799,0,8.688-3.89,8.688-8.688C483.041,127.836,479.152,123.946,474.353,123.946z"/>
	</g>
</g>
<g>
	<g>
		<path d="M474.353,150.974h-20.851c-4.799,0-8.688,3.89-8.688,8.688s3.889,8.688,8.688,8.688h20.851
			c4.799,0,8.688-3.89,8.688-8.688S479.152,150.974,474.353,150.974z"/>
	</g>
</g>
<g>
	<g>
		<path d="M474.353,178.003h-20.851c-4.799,0-8.688,3.89-8.688,8.688s3.889,8.688,8.688,8.688h20.851
			c4.799,0,8.688-3.89,8.688-8.688S479.152,178.003,474.353,178.003z"/>
	</g>
</g>
<g>
	<g>
		<path d="M474.353,205.032h-20.851c-4.799,0-8.688,3.89-8.688,8.688s3.889,8.688,8.688,8.688h20.851
			c4.799,0,8.688-3.89,8.688-8.688S479.152,205.032,474.353,205.032z"/>
	</g>
</g>
<g>
	<g>
		<path d="M282.063,133.213h-52.127c-4.799,0-8.688,3.89-8.688,8.688s3.889,8.688,8.688,8.688h52.127
			c4.799,0,8.688-3.89,8.688-8.688S286.862,133.213,282.063,133.213z"/>
	</g>
</g>
<g>
	<g>
		<path d="M282.063,162.172h-52.127c-4.799,0-8.688,3.89-8.688,8.688s3.889,8.688,8.688,8.688h52.127
			c4.799,0,8.688-3.89,8.688-8.688S286.862,162.172,282.063,162.172z"/>
	</g>
</g>
<g>
	<g>
		<path d="M282.063,191.131h-52.127c-4.799,0-8.688,3.89-8.688,8.688s3.889,8.688,8.688,8.688h52.127
			c4.799,0,8.688-3.89,8.688-8.688S286.862,191.131,282.063,191.131z"/>
	</g>
</g>
<g>
	<g>
		<circle cx="159.288" cy="213.731" r="8.657"/>
	</g>
</g>
<g>
	<g>
		<circle cx="159.288" cy="186.706" r="8.656"/>
	</g>
</g>
<g>
	<g>
		<circle cx="159.299" cy="159.681" r="8.656"/>
	</g>
</g>
<g>
	<g>
		<circle cx="159.299" cy="132.668" r="8.657"/>
	</g>
</g>
<g>
	<g>
		<circle cx="133.815" cy="213.731" r="8.657"/>
	</g>
</g>
<g>
	<g>
		<circle cx="133.815" cy="186.706" r="8.656"/>
	</g>
</g>
<g>
	<g>
		<circle cx="133.827" cy="159.681" r="8.656"/>
	</g>
</g>
<g>
	<g>
		<circle cx="133.827" cy="132.668" r="8.657"/>
	</g>
</g>
<g>
	<g>
		<circle cx="378.231" cy="213.731" r="8.657"/>
	</g>
</g>
<g>
	<g>
		<circle cx="378.231" cy="186.706" r="8.656"/>
	</g>
</g>
<g>
	<g>
		<circle cx="378.243" cy="159.681" r="8.656"/>
	</g>
</g>
<g>
	<g>
		<circle cx="378.243" cy="132.668" r="8.657"/>
	</g>
</g>
<g>
	<g>
		<circle cx="352.759" cy="213.731" r="8.657"/>
	</g>
</g>
<g>
	<g>
		<circle cx="352.759" cy="186.706" r="8.656"/>
	</g>
</g>
<g>
	<g>
		<circle cx="352.759" cy="159.681" r="8.656"/>
	</g>
</g>
<g>
	<g>
		<circle cx="352.77" cy="132.668" r="8.657"/>
	</g>
</g>
<g>
	<g>
		<circle cx="268.754" cy="334.144" r="8.656"/>
	</g>
</g>
<g>
	<g>
		<circle cx="268.754" cy="307.119" r="8.656"/>
	</g>
</g>
<g>
	<g>
		<circle cx="268.754" cy="280.094" r="8.657"/>
	</g>
</g>
<g>
	<g>
		<circle cx="268.765" cy="253.069" r="8.656"/>
	</g>
</g>
<g>
	<g>
		<circle cx="243.27" cy="334.144" r="8.656"/>
	</g>
</g>
<g>
	<g>
		<circle cx="243.281" cy="307.119" r="8.656"/>
	</g>
</g>
<g>
	<g>
		<circle cx="243.281" cy="280.094" r="8.657"/>
	</g>
</g>
<g>
	<g>
		<circle cx="243.281" cy="253.069" r="8.656"/>
	</g>
</g>
<g>
	<g>
		<circle cx="41.684" cy="410.643" r="8.656"/>
	</g>
</g>
<g>
	<g>
		<circle cx="70.654" cy="410.643" r="8.656"/>
	</g>
</g>
<g>
	<g>
		<circle cx="99.62" cy="410.643" r="8.656"/>
	</g>
</g>
<g>
	<g>
		<circle cx="128.591" cy="410.654" r="8.657"/>
	</g>
</g>
<g>
	<g>
		<circle cx="383.409" cy="410.643" r="8.656"/>
	</g>
</g>
<g>
	<g>
		<circle cx="412.38" cy="410.643" r="8.656"/>
	</g>
</g>
<g>
	<g>
		<circle cx="441.351" cy="410.643" r="8.656"/>
	</g>
</g>
<g>
	<g>
		<circle cx="470.31" cy="410.654" r="8.657"/>
	</g>
</g>
<g>
</g>
<g>
</g>
<g>
</g>
<g>
</g>
<g>
</g>
<g>
</g>
<g>
</g>
<g>
</g>
<g>
</g>
<g>
</g>
<g>
</g>
<g>
</g>
<g>
</g>
<g>
</g>
<g>
</g>
</svg>
